<?xml version="1.0" encoding="utf-8"?>
<!-- Generator: Adobe Illustrator 25.2.1, SVG Export Plug-In . SVG Version: 6.00 Build 0)  -->
<svg version="1.1" id="圖層_1" xmlns="http://www.w3.org/2000/svg" xmlns:xlink="http://www.w3.org/1999/xlink" x="0px" y="0px"
	 viewBox="0 0 17 18" style="enable-background:new 0 0 17 18;" xml:space="preserve">
<style type="text/css">
	.st0{fill-rule:evenodd;clip-rule:evenodd;fill:#FFFFFF;}
</style>
<g>
	<path class="st0" d="M8.5,0C6.2,0,5.9,0,5,0.1c-0.9,0-1.5,0.2-2.1,0.4s-1,0.5-1.5,1C1,1.9,0.7,2.4,0.4,3C0.2,3.5,0.1,4.2,0.1,5.1
		C0,6,0,6.3,0,8.6s0,2.6,0.1,3.6c0,0.9,0.2,1.5,0.4,2.1s0.5,1,1,1.5c0.5,0.5,0.9,0.8,1.5,1c0.5,0.2,1.1,0.4,2,0.4s1.2,0.1,3.5,0.1
		s2.6,0,3.5-0.1c0.9,0,1.5-0.2,2.1-0.4c0.6-0.2,1-0.5,1.5-1c0.5-0.5,0.8-1,1-1.5s0.4-1.2,0.4-2.1s0-1.2,0-3.6C17,6.3,17,6,16.9,5
		c0-0.9-0.2-1.5-0.4-2.1c-0.2-0.6-0.5-1-1-1.5s-0.9-0.8-1.5-1C13.5,0.2,12.8,0,11.9,0C11.1,0,10.8,0,8.5,0 M8.5,1.6
		c2.3,0,2.5,0,3.4,0.1c0.8,0,1.3,0.2,1.6,0.3c0.4,0.2,0.7,0.3,1,0.6s0.5,0.6,0.6,1c0.1,0.3,0.3,0.8,0.3,1.6c0,0.9,0,1.2,0,3.5
		s0,2.6,0,3.5c0,0.8-0.2,1.3-0.3,1.6c-0.2,0.4-0.3,0.7-0.6,1s-0.6,0.5-1,0.6c-0.3,0.1-0.7,0.3-1.6,0.3c-0.9,0-1.2,0.1-3.4,0.1
		c-2.3,0-2.5,0-3.4-0.1c-0.8,0-1.3-0.2-1.6-0.3c-0.4-0.2-0.7-0.3-1-0.6s-0.5-0.6-0.6-1c-0.1-0.3-0.3-0.8-0.3-1.6c0-0.9,0-1.2,0-3.5
		s0-2.6,0-3.5c0-0.8,0.2-1.3,0.3-1.6c0.2-0.4,0.3-0.7,0.6-1s0.6-0.5,1-0.6c0.3-0.1,0.7-0.3,1.6-0.3C6,1.6,6.2,1.6,8.5,1.6"/>
</g>
<path class="st0" d="M8.5,11.5c-1.6,0-2.8-1.3-2.8-2.9S7,5.7,8.5,5.7c1.6,0,2.8,1.3,2.8,2.9S10.1,11.5,8.5,11.5 M8.5,4.2
	c-2.4,0-4.4,2-4.4,4.4s2,4.4,4.4,4.4s4.4-2,4.4-4.4S10.9,4.2,8.5,4.2"/>
<path class="st0" d="M14.1,4c0,0.6-0.5,1-1,1c-0.6,0-1-0.5-1-1c0-0.6,0.5-1,1-1S14.1,3.5,14.1,4"/>
</svg>
