<svg width="17" height="14" viewBox="0 0 17 14" fill="none" xmlns="http://www.w3.org/2000/svg">
<path d="M5.34616 14C11.7613 14 15.2701 8.61339 15.2701 3.94212C15.2701 3.78913 15.2701 3.63682 15.2599 3.4852C15.9425 2.98479 16.5317 2.36519 17 1.65542C16.3634 1.9413 15.6882 2.12877 14.9967 2.21159C15.7248 1.76981 16.2698 1.07497 16.5301 0.256384C15.8455 0.668139 15.0964 0.958323 14.3154 1.11441C13.2342 -0.0507185 11.5163 -0.335889 10.1249 0.418811C8.7335 1.17351 8.01467 2.78039 8.37148 4.3384C5.56709 4.19591 2.95424 2.85344 1.1832 0.645083C0.257463 2.26028 0.730312 4.32659 2.26304 5.3639C1.70798 5.34723 1.16503 5.19548 0.68 4.92145C0.68 4.93592 0.68 4.95109 0.68 4.96625C0.680454 6.64895 1.85079 8.09825 3.4782 8.43145C2.96471 8.57338 2.42595 8.59413 1.90332 8.4921C2.36024 9.93209 3.66967 10.9186 5.16188 10.947C3.92682 11.9307 2.40112 12.4648 0.83028 12.4632C0.552774 12.4626 0.275539 12.4456 0 12.4122C1.59503 13.4496 3.45094 13.9998 5.34616 13.9973" fill="white"/>
</svg>
